<svg xmlns="http://www.w3.org/2000/svg" width="1080" height="1080" viewBox="0 0 1080 1080" version="1.1"><path d="M 532.500 289.216 C 525.316 293.364, 522.795 303.149, 527.052 310.364 L 529.105 313.843 524.715 318.232 C 518.434 324.513, 517.102 333.481, 521.224 341.734 C 523.359 346.008, 529.586 352, 531.894 352 C 532.502 352, 533 352.238, 533 352.529 C 533 353.960, 526.158 366.404, 521.470 373.500 C 514.822 383.561, 508.184 389.926, 500.500 393.608 C 495.316 396.092, 493.072 396.531, 484 396.842 C 474.552 397.164, 472.949 396.954, 468 394.737 C 454.662 388.762, 445.792 373.146, 448.203 359.882 C 449.374 353.439, 450.779 350.644, 455.311 345.741 C 461.885 338.630, 474.170 335.266, 482.270 338.359 C 488.294 340.659, 493.548 346.122, 495.558 352.173 C 497.011 356.548, 497.061 357.785, 495.927 361.222 C 494.162 366.569, 490.248 370.546, 485.286 372.033 C 477.438 374.384, 469.779 370.966, 468.581 364.577 C 467.554 359.108, 468.793 356.112, 472.871 354.200 C 475.798 352.826, 476.561 351.869, 476.813 349.249 C 477.096 346.315, 476.867 346, 474.450 346 C 469.985 346, 464.204 349.947, 462 354.500 C 457.855 363.062, 460.625 371.493, 469.654 377.797 C 472.189 379.567, 474.211 380, 479.944 380 C 490.350 380, 497.068 376.147, 501.737 367.500 C 503.993 363.322, 503.972 352.724, 501.697 346.829 C 499.554 341.274, 493.133 335.022, 486.441 331.973 C 479.543 328.831, 467.730 329.455, 459.896 333.376 C 452.496 337.081, 446.677 342.877, 443.396 349.812 C 441.125 354.611, 440.720 356.813, 440.698 364.479 C 440.673 372.751, 440.964 374.122, 444.204 381 C 446.192 385.221, 449.569 390.316, 451.929 392.654 C 454.234 394.938, 455.745 397.040, 455.285 397.324 C 454.826 397.608, 441.398 398.162, 425.445 398.555 C 393.488 399.343, 388.415 398.744, 382.116 393.444 C 374.029 386.640, 372.971 372.987, 380.013 366.315 C 385.525 361.093, 393.990 361.377, 397.718 366.910 C 400.648 371.258, 400.603 374.058, 397.548 377.354 C 394.097 381.077, 389.750 380.934, 386.842 377 C 384.586 373.949, 380.108 372.822, 379.885 375.250 C 379.111 383.651, 387.271 389.733, 395.863 387.159 C 400.869 385.659, 404.481 381.972, 406.367 376.436 C 407.722 372.460, 407.717 371.527, 406.323 367.435 C 403.150 358.122, 393.295 352.397, 384.813 354.938 C 376.105 357.547, 370.423 363.653, 367.890 373.121 C 366.837 377.058, 366.918 378.648, 368.450 384.107 C 369.435 387.617, 371.558 392.405, 373.168 394.745 L 376.096 399 368.298 399.023 C 364.009 399.036, 314.600 399.148, 258.500 399.273 C 184.721 399.437, 155.947 399.814, 154.500 400.633 C 153.400 401.257, 151.181 402.382, 149.569 403.133 C 145.731 404.922, 138.862 411.769, 137.133 415.529 C 136.382 417.163, 135.369 419.281, 134.883 420.236 C 134.397 421.191, 134 425.832, 134 430.549 C 134 437.850, 134.404 439.951, 136.714 444.668 C 145.420 462.449, 170.822 467.827, 182.419 454.344 C 189.758 445.813, 189.597 434.976, 182.019 427.250 C 179.211 424.387, 178.195 424, 173.492 424 C 167.009 424, 163.039 426.821, 161.053 432.840 C 159.893 436.355, 159.958 437.245, 161.622 440.641 C 163.835 445.157, 169.134 449, 173.148 449 C 176.568 449, 176.809 450.320, 173.777 452.443 C 171.034 454.365, 159.344 454.559, 155.297 452.750 C 147.539 449.283, 143.087 443.487, 141.150 434.335 C 139.176 425.001, 143.340 416.064, 152.417 410.157 L 156.500 407.500 360 407 C 471.925 406.725, 644.500 406.725, 743.500 407 L 923.500 407.500 927.670 410.212 C 936.315 415.835, 940.489 424.808, 938.794 434.132 C 938.265 437.042, 937.228 440.593, 936.488 442.022 C 934.528 445.813, 929.006 450.945, 925.128 452.579 C 920.508 454.526, 909.078 454.444, 906.223 452.443 C 903.067 450.233, 903.447 449.344, 907.850 448.640 C 915.778 447.372, 921.252 439.671, 918.965 433 C 918.306 431.075, 916.609 428.262, 915.196 426.750 C 912.971 424.369, 911.857 424, 906.897 424 C 901.755 424, 900.843 424.333, 897.981 427.250 C 890.048 435.337, 890.267 447.016, 898.506 455.320 C 903.143 459.994, 908.379 462, 915.937 462 C 920.685 462, 922.168 461.601, 929.889 458.246 C 934.610 456.196, 941.127 449.397, 943.774 443.761 C 946.834 437.246, 946.933 423.962, 943.967 417.654 C 941.586 412.588, 934.584 405.084, 930.419 403.133 C 928.813 402.382, 926.600 401.257, 925.500 400.633 C 924.048 399.810, 893.795 399.466, 815 399.376 C 755.325 399.308, 705.916 399.196, 705.202 399.126 C 704.350 399.043, 704.897 397.541, 706.797 394.750 C 710.058 389.958, 713 381.989, 713 377.948 C 713 371.439, 707.766 361.728, 702.342 358.172 C 690.892 350.667, 677.904 354.900, 673.760 367.487 C 672.372 371.701, 672.363 372.708, 673.672 376.550 C 678.516 390.768, 697.266 391.636, 700.552 377.794 C 701.109 375.450, 700.831 374.996, 698.481 374.406 C 696.216 373.837, 695.360 374.244, 693.311 376.862 C 690.137 380.918, 685.932 381.108, 682.452 377.354 C 679.406 374.067, 679.351 371.256, 682.250 366.967 C 685.444 362.240, 692.121 361.049, 698.161 364.128 C 701.620 365.891, 704.333 372.002, 704.333 378.027 C 704.333 388.336, 699.478 394.642, 689.251 397.615 C 684.349 399.040, 679.935 399.156, 654.567 398.525 C 638.580 398.128, 625.119 397.569, 624.654 397.283 C 624.189 396.997, 625.853 394.679, 628.351 392.132 C 630.863 389.571, 634.339 384.402, 636.125 380.572 C 639.012 374.380, 639.356 372.681, 639.371 364.572 C 639.385 356.726, 639.018 354.734, 636.660 349.832 C 633.174 342.587, 627.131 336.693, 619.357 332.954 C 614.137 330.444, 612.034 330.003, 605.357 330.022 C 593.500 330.055, 585.139 334.787, 579.284 344.779 C 577.066 348.563, 576.640 350.501, 576.619 356.892 C 576.584 367.251, 580.233 373.527, 588.844 377.920 C 594.721 380.919, 605.968 380.854, 610.346 377.797 C 616.529 373.480, 620 367.690, 620 361.694 C 620 354.253, 612.645 346, 606.014 346 C 603.336 346, 603 346.333, 603 348.980 C 603 351.438, 603.684 352.309, 606.916 353.957 C 615.674 358.425, 612.646 370.663, 602.302 372.603 C 594.762 374.018, 586.597 368.870, 584.027 361.081 C 581.355 352.985, 588.117 341.852, 597.687 338.591 C 603.883 336.480, 607.815 336.585, 614.367 339.036 C 620.330 341.267, 628.128 348.229, 629.746 352.768 C 633.594 363.556, 633.652 364.404, 631.072 372.114 C 627.165 383.784, 621.957 389.983, 612.168 394.614 C 607.096 397.013, 605.875 397.179, 596.090 396.800 C 586.762 396.438, 584.726 396.018, 579 393.269 C 568.750 388.347, 559.132 377.159, 550.636 360.275 C 546.610 352.275, 546.526 352, 548.106 352 C 548.714 352, 550.929 350.640, 553.027 348.978 C 562.714 341.307, 563.812 327.137, 555.409 318.242 L 551.115 313.695 553.057 309.887 C 558.605 299.012, 551.973 287.963, 539.938 288.030 C 536.947 288.047, 533.600 288.580, 532.500 289.216 M 536.500 296.154 C 533.691 297.804, 533.033 299.037, 533.015 302.679 C 532.998 306.222, 534.959 308.701, 538.477 309.584 C 540.840 310.177, 544.885 308.621, 546.235 306.600 C 547.405 304.848, 547.115 299.537, 545.750 297.705 C 544.119 295.515, 539.037 294.663, 536.500 296.154 M 535.298 319.650 C 534.087 319.912, 531.724 321.689, 530.048 323.598 C 527.466 326.539, 527 327.885, 527 332.400 C 527 338.348, 529.101 341.967, 534.039 344.520 C 539.712 347.454, 546.698 345.742, 550.912 340.385 C 552.442 338.440, 553 336.292, 553 332.350 C 553 327.664, 552.581 326.520, 549.750 323.476 C 547.168 320.700, 545.575 319.899, 542 319.578 C 539.525 319.355, 536.509 319.388, 535.298 319.650 M 536.239 363.844 C 530.833 374.407, 523.715 384.384, 516.332 391.750 L 509.064 399 512.782 399.009 C 530.424 399.053, 567.854 399.074, 569.243 399.041 C 570.423 399.013, 568.777 396.815, 564.160 392.250 C 558.416 386.570, 553.482 380.013, 546.268 368.472 C 545.590 367.387, 544.116 364.587, 542.993 362.250 C 541.869 359.913, 540.563 358, 540.090 358 C 539.617 358, 537.884 360.630, 536.239 363.844 M 238.348 434.904 C 232.263 438.160, 231.230 439.118, 227.434 445.022 C 224.816 449.095, 224.553 450.313, 224.528 458.500 C 224.503 466.562, 224.798 468.038, 227.360 472.661 C 231.746 480.573, 240.757 488, 245.971 488 C 247.022 488, 248.160 488.450, 248.500 489 C 248.904 489.653, 276.753 490, 328.788 490 L 408.458 490 415.479 492.575 C 419.340 493.991, 424.137 495.836, 426.137 496.676 C 429.668 498.157, 430.102 498.082, 440.965 494.101 L 452.155 490 471.431 490 C 489.630 490, 491.371 490.170, 502.603 493.040 C 514.993 496.207, 515.646 496.427, 530.752 502.535 L 540.004 506.276 547.472 503.141 C 556.990 499.146, 566.914 495.860, 579.339 492.590 C 588.307 490.229, 590.901 490, 608.635 490 L 628.091 490 639.101 494.127 L 650.112 498.253 654.306 496.517 C 671.052 489.586, 664.478 490.023, 752.250 490.011 C 804.743 490.004, 832 489.658, 832 489 C 832 488.450, 832.886 488, 833.970 488 C 839.246 488, 848.242 480.605, 852.630 472.661 C 855.174 468.055, 855.480 466.532, 855.470 458.500 C 855.461 450.289, 855.207 449.108, 852.574 445.022 C 848.705 439.021, 847.926 438.328, 841.251 434.942 C 833.696 431.110, 827.003 430.994, 819.459 434.563 C 812.839 437.694, 808.787 442.406, 807.120 448.909 C 803.210 464.164, 820.128 478.077, 833.989 471.006 C 842.267 466.782, 845.414 460.495, 841.171 456.655 C 837.201 453.062, 830 456.284, 830 461.653 C 830 467.934, 818.254 465.588, 815.229 458.703 C 812.416 452.301, 814.249 446.425, 820.309 442.415 C 823.890 440.044, 825.019 439.808, 830.620 440.258 C 838.721 440.908, 842.815 443.344, 846.227 449.545 C 849.505 455.503, 849.773 461.031, 847.088 467.296 C 845.007 472.149, 838.753 478.530, 833.691 480.965 C 830.845 482.334, 799.109 482.500, 540 482.500 C 271.277 482.500, 249.238 482.375, 246 480.838 C 241.798 478.843, 235.834 473.060, 234.055 469.255 C 233.346 467.740, 232.369 465.719, 231.883 464.764 C 230.262 461.576, 230.952 455.028, 233.424 450.150 C 236.811 443.467, 242.272 440, 249.413 440 C 256.203 440, 258.819 440.973, 262.836 444.990 C 270.413 452.567, 263.977 466.043, 253.362 464.827 C 251.158 464.574, 250.395 463.879, 250.005 461.768 C 248.535 453.811, 238.815 452.138, 237.415 459.601 C 236.548 464.222, 238.642 467.145, 245.144 470.384 C 253.741 474.668, 260.201 473.722, 267.208 467.153 C 271.885 462.767, 274.901 454.272, 273.147 450.422 C 272.516 449.038, 272 447.130, 272 446.181 C 272 443.051, 265.810 436.806, 260.286 434.363 C 252.810 431.057, 245.189 431.245, 238.348 434.904 M 329 502.100 C 312.902 506.328, 305.635 511.563, 303.333 520.588 C 300.645 531.122, 308.737 539.723, 318.713 536.937 C 324.861 535.221, 328.593 529, 323.475 529 C 320.449 529, 318.752 525.489, 319.638 521.058 C 320.251 517.994, 325.966 512, 328.273 512 C 329.003 512, 330.163 511.438, 330.850 510.750 C 331.732 509.869, 335.992 509.521, 345.300 509.570 C 356.925 509.632, 359.067 509.914, 363.256 511.933 C 369.491 514.939, 372.582 518.772, 374.046 525.317 C 375.051 529.807, 374.982 531.550, 373.612 536.262 C 372.716 539.345, 370.843 543.222, 369.450 544.877 C 366.456 548.436, 357.641 552, 351.835 552 L 347.746 552 348.322 547.250 C 348.638 544.638, 349.587 538.900, 350.429 534.500 C 353.686 517.490, 352.171 514, 341.528 514 C 334.231 514, 334.332 513.871, 334.108 523.500 C 334.031 526.800, 333.573 530.850, 333.090 532.500 C 332.608 534.150, 331.671 539.550, 331.008 544.500 C 330.345 549.450, 329.432 554.625, 328.978 556 C 328.524 557.375, 327.895 560.525, 327.579 563 C 327.263 565.475, 326.564 569.975, 326.026 573 C 323.580 586.758, 323.591 588.413, 326.147 591.385 C 328.216 593.790, 329.284 594.167, 334.152 594.211 C 337.241 594.238, 340.271 593.951, 340.884 593.571 C 341.498 593.192, 342 590.456, 342 587.490 C 342 584.525, 342.414 579.939, 342.920 577.299 C 343.426 574.660, 344.387 569.688, 345.056 566.250 L 346.273 560 350.962 560 C 357.916 560, 360.033 562.864, 363.527 577 C 364.411 580.575, 366.217 585.161, 367.542 587.191 C 373.715 596.651, 387.266 596.571, 397.500 587.014 L 400.500 584.213 403.500 587.110 C 408.698 592.129, 414.022 594, 423.108 594 C 433.142 594, 442.374 591.083, 448.244 586.059 C 450.937 583.754, 452.494 582.981, 452.770 583.810 C 453.680 586.541, 458.416 591.147, 461.742 592.537 C 466.031 594.329, 474.237 594.442, 477.264 592.750 C 478.494 592.063, 480.733 590.408, 482.240 589.073 C 483.746 587.738, 485.162 586.838, 485.385 587.073 C 485.738 587.444, 483.834 598.548, 480.072 618.060 C 478.422 626.616, 478.690 633.412, 480.750 635.260 C 482.911 637.200, 489.133 638.434, 492.493 637.591 C 494.661 637.047, 495 636.405, 495 632.847 C 495 630.584, 495.428 627.105, 495.951 625.116 C 496.475 623.127, 497.659 616.775, 498.584 611 C 499.508 605.225, 500.626 598.475, 501.068 596 C 502.387 588.612, 507.047 561.951, 508.148 555.500 C 508.711 552.200, 509.609 547.250, 510.144 544.500 C 510.680 541.750, 511.361 537.587, 511.659 535.250 L 512.201 531 507.666 531 C 502.539 531, 499.051 532.092, 496.716 534.427 C 495.256 535.887, 494.808 535.809, 491.421 533.511 C 484.029 528.495, 472.781 530.605, 464.048 538.645 C 455.648 546.378, 451 557.490, 451 569.835 L 451 575.572 445.361 579.286 C 439.599 583.080, 437.585 583.501, 427.500 583.019 C 421.470 582.730, 417.708 580.308, 414.977 574.956 C 411.986 569.092, 412.309 568.455, 419.250 566.535 C 422.688 565.584, 428.296 563.485, 431.713 561.870 C 443.243 556.420, 447.601 551.022, 446.727 543.272 C 445.845 535.445, 439.397 531, 428.925 531 C 423.424 531, 421.954 531.365, 414.440 534.597 C 401.392 540.210, 391.650 561.093, 396.111 573.888 C 397.101 576.728, 396.966 577.298, 394.861 579.142 C 387.441 585.645, 383.700 583.328, 379.456 569.599 C 377.598 563.590, 372.373 557, 369.467 557 C 366.968 557, 367.853 555.254, 370.715 554.535 C 383.020 551.447, 393 540.622, 393 530.362 C 393 518.153, 386.230 510.224, 370.500 504.011 C 363.170 501.115, 337.286 499.923, 329 502.100 M 331.500 503.211 C 313.084 506.658, 305.246 512.798, 304.748 524.169 C 304.538 528.959, 304.868 530.230, 306.876 532.367 C 308.182 533.758, 310.507 535.172, 312.042 535.509 C 315.683 536.309, 322.628 534.412, 323.397 532.407 C 324.250 530.186, 324.242 530.174, 321.759 529.820 C 318.365 529.335, 316.490 524.686, 318.071 520.675 C 320.654 514.128, 325.390 510.686, 334.977 508.393 C 342.256 506.651, 346.937 506.682, 356 508.534 C 369.661 511.324, 375.961 518.095, 375.974 530 C 375.980 535.402, 375.474 537.384, 372.979 541.734 C 369.819 547.244, 366.893 549.696, 361.045 551.734 C 356.921 553.172, 347.373 553.413, 346.562 552.101 C 346.257 551.607, 346.901 546.094, 347.993 539.851 C 350.437 525.886, 350.571 518.714, 348.429 516.571 C 347.399 515.541, 345.046 515, 341.601 515 L 336.344 515 335.217 524.750 C 334.596 530.112, 333.634 537.200, 333.078 540.500 C 331.684 548.780, 330.382 556.373, 329.093 563.750 C 324.263 591.379, 324.651 593.334, 334.868 592.796 L 340.500 592.500 341.125 584 C 341.824 574.498, 343.438 563.408, 344.509 560.750 C 345.065 559.370, 346.422 559, 350.933 559 C 358.498 559, 360.340 561.008, 363.910 573.150 C 367.385 584.965, 369.291 588.597, 373.299 591.040 C 379.893 595.062, 389.175 593.011, 396.117 586 L 400.138 581.939 405.107 586.406 C 408.974 589.883, 411.342 591.137, 415.783 592.059 C 427.038 594.395, 440.650 591.027, 448.774 583.894 C 451.887 581.160, 454 580.826, 454 583.068 C 454 585.019, 459.349 589.922, 463.127 591.434 C 470.430 594.356, 477.018 592.886, 482.437 587.123 C 484.052 585.405, 485.954 584, 486.662 584 C 488.040 584, 487.902 585.479, 485.499 596.500 C 484.779 599.800, 483.667 605.875, 483.029 610 C 482.391 614.125, 481.448 619.127, 480.934 621.116 C 480.420 623.105, 480 626.781, 480 629.286 L 480 633.839 484.980 635.493 C 492.595 638.023, 493.628 637.277, 494.353 628.724 C 494.969 621.460, 495.563 617.653, 498.525 602 C 499.409 597.325, 500.595 590.800, 501.159 587.500 C 501.723 584.200, 502.609 579.025, 503.127 576 C 503.644 572.975, 504.479 568.025, 504.981 565 C 506.621 555.126, 509.454 539.917, 510.615 534.750 C 511.188 532.201, 511.003 532, 508.084 532 C 504.052 532, 498.145 534.458, 497.379 536.455 C 496.598 538.491, 495.351 538.405, 492.931 536.150 C 490.867 534.227, 484.662 532, 481.370 532 C 478.389 532, 469.345 535.583, 466.319 537.964 C 463.115 540.484, 456.079 549.923, 456.032 551.764 C 456.015 552.459, 455.582 553.809, 455.072 554.764 C 454.058 556.661, 452 569.268, 452 573.582 C 452 576.390, 451.153 577.310, 444.500 581.736 C 440.925 584.114, 439.535 584.402, 431.423 584.448 C 423.002 584.496, 422.082 584.299, 418.708 581.726 C 414.453 578.481, 411.717 573.315, 412.176 569.391 C 412.439 567.139, 413.160 566.464, 416 565.813 C 431.269 562.314, 443.023 555.198, 444.927 548.301 C 447.160 540.216, 443.152 534.901, 433.308 532.889 C 427.560 531.715, 426.604 531.794, 419.994 534.002 C 411.517 536.833, 403.804 543.590, 400.022 551.500 C 397.967 555.797, 397.617 558.075, 397.533 567.700 C 397.479 573.859, 397.224 579.063, 396.967 579.263 C 387.011 587.030, 383.295 585.397, 378.558 571.176 C 375.847 563.032, 373.057 559.549, 367.750 557.679 C 364.119 556.400, 365.445 555.259, 375 551.442 C 380.031 549.431, 387.364 543.017, 389.686 538.594 C 391.694 534.772, 391.689 525.466, 389.678 520.719 C 387.081 514.590, 379.709 508.732, 370.500 505.479 C 361.760 502.392, 342.013 501.244, 331.500 503.211 M 602.289 505.250 C 597.782 510.175, 598.212 517.024, 603.191 519.599 C 611.531 523.911, 619.822 513.128, 613.927 505.635 C 611.183 502.146, 605.308 501.952, 602.289 505.250 M 603.635 506.073 C 601.493 507.757, 601 508.979, 601 512.597 C 601 516.503, 601.328 517.174, 603.674 518.066 C 607.670 519.585, 611.801 518.285, 613.517 514.966 C 615.576 510.985, 615.383 509.292, 612.545 506.455 C 609.547 503.456, 607.095 503.351, 603.635 506.073 M 703.750 513.326 C 702.501 514.322, 701.971 516.262, 701.900 520.110 C 701.732 529.216, 701.071 530.427, 695.960 531 C 691.781 531.469, 691.480 531.705, 691.187 534.750 C 690.878 537.950, 690.938 538, 695.068 538 L 699.263 538 698.703 541.750 C 697.538 549.539, 694.955 564.681, 694.004 569.294 C 692.785 575.203, 688.601 580.643, 684.141 582.117 C 681.222 583.082, 680.518 582.962, 678.759 581.203 C 677.209 579.653, 676.762 577.970, 676.851 574.021 C 676.915 571.184, 677.156 568.556, 677.388 568.181 C 678.214 566.843, 681 548.924, 681 544.950 C 681 534.487, 670.936 527.990, 661.297 532.230 C 657.200 534.033, 651.200 538.476, 648.880 541.426 C 645.979 545.113, 645.129 544.631, 645.326 539.412 C 645.561 533.223, 642.927 531, 635.358 531 C 631.938 531, 629.765 531.461, 629.469 532.250 C 629.212 532.938, 628.552 537.325, 628.002 542 C 627.453 546.675, 626.568 552.975, 626.037 556 C 625.505 559.025, 624.758 563.750, 624.376 566.500 C 623.536 572.551, 620.061 578.383, 615.715 581.033 C 611.627 583.525, 611.417 583.508, 608.367 580.457 C 605.469 577.560, 605.503 576.569, 609.174 556.500 C 612.457 538.554, 612.516 536.904, 609.990 533.705 C 607.947 531.116, 607.335 530.932, 601.681 531.205 L 595.577 531.500 594.372 541 C 593.710 546.225, 592.255 555.796, 591.139 562.268 C 588.874 575.407, 586.878 579.317, 581.233 581.676 C 577.976 583.037, 577.617 582.989, 575.381 580.889 C 572.046 577.755, 572.125 574.810, 576.044 556 C 576.560 553.525, 577.271 547.847, 577.624 543.383 C 578.210 535.961, 578.083 535.083, 576.133 533.133 C 574.476 531.476, 572.780 531, 568.535 531 C 562.095 531, 561.024 532.227, 560.956 539.684 C 560.911 544.581, 559.015 553.318, 557.715 554.618 C 557.322 555.012, 557 556.131, 557 557.106 C 557 559.538, 551.110 570.833, 546.934 576.412 C 543.186 581.418, 539.877 582.973, 537.381 580.901 C 535.486 579.328, 535.443 579.753, 540.431 550.500 C 542.539 538.137, 542.436 535.758, 539.686 533.174 C 537.948 531.542, 536.128 531, 532.386 531 C 526.343 531, 525.001 532.172, 524.997 537.450 C 524.996 539.678, 524.029 546.900, 522.850 553.500 C 521.670 560.100, 520.508 570.052, 520.266 575.616 L 519.826 585.732 523.758 589.866 C 527.350 593.643, 528.125 594, 532.723 594 C 541.090 594, 546.465 590.812, 552.137 582.484 C 555.040 578.222, 556.303 578.494, 557.126 583.558 C 557.584 586.377, 558.804 588.356, 561.546 590.726 C 564.860 593.591, 566.039 594, 570.979 594 C 577.289 594, 583.107 591.672, 586.882 587.636 L 589.265 585.089 593.520 589.467 C 596.182 592.206, 598.847 593.968, 600.638 594.174 C 606.132 594.804, 612.125 593.297, 616.561 590.170 C 619.343 588.209, 621 587.536, 621 588.368 C 621 592.547, 630.073 596.063, 635.516 593.994 C 637.413 593.273, 637.847 592.170, 638.336 586.821 C 639.074 578.758, 639.894 574.084, 641.068 571.250 C 641.581 570.013, 642.391 567.987, 642.869 566.750 C 646.352 557.736, 649.179 552.903, 653.663 548.300 C 658.822 543.005, 662.271 541.659, 663.367 544.513 C 663.941 546.010, 662.999 554.871, 661.028 566.500 C 657.766 585.756, 662.117 594.159, 675.338 594.132 C 681.424 594.120, 685.796 592.141, 690.551 587.244 C 692.455 585.284, 694.141 583.864, 694.297 584.090 C 697.929 589.336, 700.407 592, 701.657 592 C 702.709 592, 702.214 591.068, 700.126 589.117 C 698.428 587.532, 696.565 584.987, 695.986 583.462 L 694.931 580.690 690.012 585.794 C 686.595 589.338, 683.790 591.249, 680.832 592.045 C 673.502 594.019, 666.084 591.826, 663.004 586.775 C 660.572 582.787, 660.456 577.474, 662.549 566 C 665.919 547.517, 665.971 547.030, 664.810 544.482 C 661.836 537.956, 652.107 544.634, 645.220 557.928 C 642.899 562.407, 641 566.866, 641 567.836 C 641 568.806, 640.622 570.028, 640.161 570.550 C 638.971 571.897, 637.013 581.588, 636.735 587.500 L 636.500 592.500 631.784 592.803 C 626.445 593.147, 623.007 591.745, 622.985 589.215 C 622.946 584.831, 621.307 584.582, 616.962 588.301 C 612.421 592.188, 606.518 593.754, 600.753 592.601 C 597.007 591.851, 592 587.397, 592 584.813 C 592 582.081, 589.343 582.632, 586.357 585.984 C 580.963 592.038, 571.007 594.703, 564.774 591.761 C 561.327 590.135, 558.687 585.562, 558.030 580.080 C 557.739 577.649, 557.050 575.524, 556.500 575.358 C 555.950 575.192, 554.052 577.190, 552.283 579.799 C 546.881 587.767, 542.990 590.898, 536.909 592.173 C 530.240 593.572, 526.776 592.266, 523.193 587 C 521.018 583.805, 520.862 582.804, 521.393 575.500 C 521.714 571.100, 522.414 565.025, 522.950 562 C 524.351 554.083, 525.896 544.342, 526.755 538 L 527.500 532.500 531.852 532.188 C 534.977 531.963, 536.771 532.386, 538.212 533.688 C 540.002 535.303, 540.162 536.369, 539.688 543.500 C 539.395 547.900, 538.427 555.100, 537.536 559.500 C 534.827 572.883, 534.473 580.330, 536.451 582.308 C 537.381 583.239, 538.941 584, 539.916 584 C 544.570 584, 555.351 568.110, 558.912 556 C 559.640 553.525, 560.500 550.825, 560.823 550 C 561.145 549.175, 561.880 544.900, 562.455 540.500 L 563.500 532.500 568.013 532.205 C 571.493 531.977, 573.044 532.393, 574.789 534.018 C 576.753 535.848, 576.979 536.812, 576.500 541.313 C 575.640 549.408, 573.961 560.143, 572.934 564.116 C 572.420 566.105, 572 570.617, 572 574.144 C 572 579.330, 572.384 580.885, 574.011 582.278 C 576.854 584.711, 580.588 584.416, 584.476 581.450 C 588.629 578.283, 591.164 573.153, 592.111 566 C 592.512 562.975, 593.510 556.675, 594.330 552 C 595.536 545.122, 596.226 539.972, 596.976 532.250 C 596.989 532.112, 599.025 532, 601.500 532 C 607.047 532, 610.009 534.532, 609.980 539.250 C 609.957 542.881, 608.893 550.329, 606.585 563 C 604.358 575.225, 604.512 579.193, 607.314 581.826 C 610.364 584.691, 613.561 584.572, 617.665 581.442 C 621.979 578.151, 624.529 573.075, 625.934 564.975 C 626.553 561.414, 627.477 556.475, 627.988 554 C 628.500 551.525, 629.198 546.350, 629.540 542.500 C 630.466 532.063, 630.501 532, 635.345 532 C 637.660 532, 640.612 532.740, 641.903 533.645 C 644.037 535.139, 644.203 535.825, 643.721 541.144 C 643.166 547.266, 644.415 549.797, 646.315 546.402 C 648.203 543.027, 655.491 536.469, 659.430 534.600 C 665.692 531.629, 670.366 531.413, 673.903 533.931 C 675.582 535.126, 677.698 537.669, 678.605 539.580 C 680.280 543.109, 680.234 544.508, 678.016 557.500 C 674.799 576.354, 674.779 578.724, 677.807 582.250 C 680.731 585.655, 687.696 583.679, 691.568 578.347 C 694.358 574.505, 695.163 572.386, 696.070 566.500 C 696.494 563.750, 697.384 558.350, 698.049 554.500 C 698.713 550.650, 699.311 545.250, 699.378 542.500 L 699.500 537.500 695.689 537.186 C 692.416 536.916, 691.922 536.563, 692.189 534.686 C 692.440 532.920, 693.268 532.439, 696.500 532.183 C 698.700 532.009, 700.936 531.437, 701.470 530.913 C 702.003 530.389, 702.918 526.482, 703.503 522.230 L 704.566 514.500 709.033 514.206 C 716.118 513.740, 717.283 515.200, 717.106 524.330 L 716.957 532 723.048 532 C 728.793 532, 729.121 532.128, 728.820 534.250 C 728.535 536.257, 727.851 536.533, 722.500 536.805 C 719.200 536.973, 716.145 537.463, 715.710 537.895 C 714.837 538.763, 710.646 560.989, 709.536 570.635 C 708.174 582.478, 714.689 587.534, 724 581.860 C 730.185 578.091, 730.756 576.879, 730.228 568.648 C 729.193 552.524, 738.134 538.965, 753.095 533.968 C 766.382 529.531, 779 534.661, 779 544.500 C 779 547.737, 776.435 552.816, 773.626 555.139 C 768.916 559.036, 754.506 565.143, 747.500 566.212 C 742.922 566.910, 746.011 577.729, 751.939 581.759 C 760.266 587.420, 775.143 585.447, 783.490 577.574 C 785.590 575.594, 787.504 574.171, 787.745 574.412 C 788.901 575.567, 786.397 579.350, 781.537 583.792 C 769.348 594.932, 748.795 596.089, 737.451 586.273 C 736.325 585.298, 735.101 583.712, 734.733 582.750 C 733.713 580.088, 730.630 580.656, 728.190 583.957 C 726.988 585.583, 723.866 588.169, 721.252 589.703 C 717.446 591.937, 715.274 592.493, 710.345 592.496 C 706.961 592.498, 704.400 592.837, 704.655 593.250 C 705.487 594.597, 716.617 594.038, 719.713 592.493 C 721.375 591.664, 724.830 589.142, 727.391 586.887 L 732.047 582.789 736.456 586.853 C 742.582 592.499, 746.736 594, 756.241 594 C 767.989 594, 775.879 591.065, 783.250 583.951 C 787.399 579.947, 789 577.666, 789 575.760 C 789 571.825, 787.294 571.497, 784.444 574.884 C 780.270 579.845, 772.326 583, 764.012 583 C 755.263 583, 751.910 581.409, 748.539 575.657 C 744.791 569.261, 745.097 568.511, 752.250 566.554 C 761.868 563.923, 772.342 558.471, 776.392 553.988 C 779.571 550.469, 780 549.370, 779.999 544.747 C 779.997 538.615, 777.499 534.942, 771.672 532.508 C 767.320 530.689, 757.977 530.544, 753.071 532.219 C 737.523 537.527, 728.568 550.800, 728.794 568.201 C 728.888 575.430, 728.697 576.200, 726.251 578.468 C 721.717 582.672, 718.707 583.429, 714.488 581.427 L 710.808 579.681 711.337 571.590 C 711.628 567.141, 712.323 561.025, 712.880 558 C 713.438 554.975, 714.395 549.585, 715.006 546.023 C 715.617 542.461, 716.653 539.205, 717.308 538.788 C 717.964 538.372, 720.376 538.024, 722.668 538.015 C 728.629 537.993, 730 537.223, 730 533.893 C 730 531.023, 729.951 531, 723.993 531 L 717.986 531 718.610 524.250 C 719.138 518.545, 718.946 517.148, 717.367 515.223 C 715.018 512.358, 706.461 511.167, 703.750 513.326 M 422.562 539.266 C 417.508 542.132, 412.158 551.552, 412.064 557.750 C 411.993 562.451, 412.460 562.681, 418.104 560.714 C 427.058 557.594, 434 550.025, 434 543.382 C 434 537.008, 429.438 535.367, 422.562 539.266 M 756.366 538.919 C 750.416 542.546, 745 552.176, 745 559.126 C 745 562.337, 745.865 562.564, 751 560.698 C 761.294 556.958, 767 550.784, 767 543.385 C 767 536.990, 762.576 535.132, 756.366 538.919 M 424.771 539.992 C 422.730 540.985, 420.455 542.405, 419.716 543.149 C 417.695 545.181, 413 555.575, 413 558.018 C 413 559.910, 413.377 560.078, 416.250 559.459 C 421.054 558.425, 424.219 556.570, 428.234 552.435 C 435.838 544.607, 433.387 535.801, 424.771 539.992 M 482.243 539.875 C 477.638 541.150, 473.322 545.766, 470.738 552.179 C 463.686 569.676, 465.041 582.943, 473.969 583.822 C 477.766 584.196, 481.694 581.029, 485.527 574.500 C 488.590 569.282, 492.550 556.957, 493.410 549.967 C 494.020 545.001, 493.854 544.219, 491.795 542.348 C 489.137 539.933, 485.464 538.982, 482.243 539.875 M 757.966 539.797 C 752.652 542.233, 747.521 550.014, 746.311 557.471 L 745.738 561.004 750.119 559.463 C 759.828 556.049, 766.556 548.635, 765.809 542.174 C 765.557 539.994, 764.946 539.462, 762.500 539.297 C 760.850 539.185, 758.810 539.410, 757.966 539.797 M 479.019 543.250 C 469.736 549.625, 464.281 576.581, 471.281 581.485 C 474.350 583.634, 475.463 583.411, 479.548 579.824 C 483.339 576.495, 486.626 570.575, 488.889 563 C 489.628 560.525, 490.631 557.195, 491.117 555.601 C 492.805 550.058, 492.210 544.261, 489.777 542.557 C 486.660 540.373, 482.851 540.619, 479.019 543.250 M 400.500 645.691 C 397.424 646.532, 393 651.695, 393 654.444 C 393 655.798, 393.493 657.988, 394.096 659.311 C 395.035 661.372, 394.820 662.089, 392.596 664.313 C 387.133 669.776, 390.761 677.768, 399.133 678.712 C 404.251 679.288, 412.561 676.307, 413.635 673.508 C 414.562 671.093, 413.822 670.951, 408.993 672.615 C 403.982 674.341, 398.503 673.753, 397.597 671.391 C 396.222 667.808, 397.023 665.888, 400.500 664.436 C 404.534 662.750, 404.762 662, 402 659.500 C 399.383 657.132, 399.457 653.206, 402.174 650.314 C 403.560 648.839, 403.872 648, 403.035 648 C 399.206 648, 397.268 658.928, 400.750 660.883 C 402.414 661.817, 402.414 661.899, 400.737 662.545 C 398.540 663.391, 396.447 661.722, 395.192 658.122 C 393.746 653.972, 396.085 649.280, 400.526 647.425 C 403.956 645.992, 404.205 646.027, 406.053 648.212 C 407.524 649.950, 407.849 651.401, 407.406 654.250 C 406.907 657.465, 407.094 658, 408.712 658 C 411.494 658, 413 656.019, 413 652.359 C 413 649.149, 411.501 647.115, 410.183 648.537 C 409.808 648.942, 410.063 649.475, 410.750 649.720 C 411.438 649.966, 412 651.479, 412 653.083 C 412 655.250, 411.526 656, 410.159 656 C 408.525 656, 408.400 655.463, 409.051 651.250 C 409.454 648.638, 409.663 646.368, 409.516 646.207 C 408.919 645.556, 402.368 645.181, 400.500 645.691 M 427.161 646.691 C 421.338 649.560, 420.843 657, 426.476 657 C 429.503 657, 430.564 655.384, 428.874 653.348 C 427.787 652.038, 427.885 651.557, 429.479 650.392 C 433.516 647.440, 433.532 647.688, 430.376 664.721 C 428.609 674.260, 428.815 677.349, 431.250 677.813 C 432.605 678.071, 433 677.463, 433 675.114 C 433 673.446, 433.506 668.680, 434.124 664.522 C 435.465 655.508, 436.862 655.702, 438.949 665.190 C 441.521 676.881, 444.108 680.677, 447.886 678.305 C 448.795 677.734, 449.823 675.153, 450.239 672.396 C 450.646 669.703, 451.454 664.575, 452.035 661 C 454.492 645.882, 454.495 646, 451.601 646 L 449 646 449 654.878 C 449 661.517, 448.625 664.066, 447.512 664.990 C 445.866 666.356, 446.110 666.777, 444.035 659 C 441.280 648.671, 440.555 646.832, 438.885 645.939 C 436.221 644.513, 430.888 644.855, 427.161 646.691 M 479.500 646.480 C 471.883 649.215, 467.237 657.540, 468.261 666.621 C 468.858 671.921, 471.514 675.515, 476.270 677.459 C 481.420 679.564, 484.785 679.372, 489.492 676.706 C 493.611 674.373, 496.026 669.955, 492.351 671.473 C 486.881 673.734, 483.118 674.166, 480.371 672.848 C 476.406 670.947, 474.813 667.408, 475.401 661.804 C 476.015 655.940, 478.099 651.820, 481.616 649.516 C 484.161 647.848, 484.412 647.842, 485.570 649.426 C 486.472 650.661, 486.539 652.084, 485.818 654.697 C 485.060 657.442, 485.141 658.474, 486.165 659.123 C 488.126 660.366, 488.787 660.213, 491 658 C 493.616 655.384, 493.526 652.147, 490.745 648.792 C 487.893 645.351, 484.556 644.665, 479.500 646.480 M 518.897 647.424 C 516.579 648.999, 514.726 651.430, 513.604 654.366 C 511.987 658.600, 511.984 659.046, 513.554 661.442 C 514.681 663.161, 516.133 664, 517.985 664 C 520.391 664, 520.897 663.438, 521.981 659.566 C 522.664 657.128, 523.046 653.285, 522.831 651.026 C 522.482 647.365, 522.660 646.950, 524.470 647.209 C 527.267 647.610, 527.533 651.397, 525.488 661.705 C 523.853 669.944, 524.055 675, 526.019 675 C 526.559 675, 527 675.450, 527 676 C 527 677.310, 522.302 677.298, 521.492 675.987 C 521.147 675.429, 520.856 673.517, 520.844 671.737 C 520.804 665.904, 520.178 665, 516.183 665.004 C 512.725 665.007, 512.384 665.297, 510.599 669.754 C 508.628 674.674, 506.307 678, 504.845 678 C 502.940 678, 504.196 674.706, 507 672.347 C 509.985 669.835, 510.907 666.679, 509 665.500 C 507.309 664.455, 507.891 663, 510 663 C 511.100 663, 512 662.367, 512 661.594 C 512 659.578, 508.187 660.782, 506.889 663.207 C 506.066 664.746, 506.228 665.447, 507.651 666.487 C 509.338 667.720, 509.200 668.047, 505.600 671.345 C 501.651 674.961, 501.301 677.411, 504.555 678.659 C 506.671 679.472, 509.064 676.951, 511.086 671.780 C 514.018 664.281, 519 663.770, 519 670.969 C 519 678.516, 524.186 680.803, 529.750 675.711 C 532.968 672.765, 532.538 671.809, 528.347 672.595 L 524.694 673.280 525.393 669.890 C 526.644 663.815, 528.963 650.529, 528.982 649.321 C 529.009 647.591, 526.118 645, 524.161 645 C 523.228 645, 520.859 646.091, 518.897 647.424 M 545.841 646.622 C 539.967 649.061, 539.248 657, 544.901 657 C 548.439 657, 549.162 656.232, 547.751 653.973 C 546.464 651.912, 548.172 649, 550.668 649 C 552.202 649, 552.124 649.896, 549.402 663.500 C 547.843 671.295, 547.585 677.626, 548.798 678.375 C 550.731 679.570, 551.771 676.929, 552.441 669.121 C 552.836 664.512, 553.522 659.787, 553.965 658.621 C 554.755 656.541, 554.790 656.548, 555.758 659 C 556.847 661.760, 558.125 666.037, 560.019 673.265 C 560.989 676.965, 561.813 678.166, 563.707 678.641 C 565.049 678.978, 566.575 678.825, 567.098 678.302 C 567.621 677.779, 568.747 673.334, 569.599 668.425 C 570.452 663.516, 571.628 657.176, 572.214 654.335 C 573.457 648.305, 572.854 646, 570.031 646 C 568.172 646, 568 646.628, 568 653.435 C 568 661.071, 566.833 666, 565.025 666 C 564.461 666, 564 664.896, 564 663.547 C 564 662.198, 563.597 660.060, 563.104 658.797 C 562.611 657.534, 561.635 654.475, 560.934 652 C 560.234 649.525, 558.976 646.938, 558.139 646.250 C 556.105 644.578, 550.343 644.753, 545.841 646.622 M 590.500 645.850 C 585.265 647.552, 582.708 651.100, 584.086 654.750 C 584.705 656.388, 585.744 657, 587.909 657 C 591.011 657, 592.768 655.593, 591.016 654.510 C 589.101 653.327, 590.001 650.970, 593.082 649.096 C 595.128 647.852, 595.716 647.043, 594.832 646.690 C 594.100 646.397, 598.086 646.122, 603.691 646.079 C 609.296 646.036, 614.129 646.399, 614.430 646.887 C 615.560 648.716, 612.092 650.191, 608.206 649.535 C 603.598 648.756, 602.450 649.807, 601.692 655.500 C 599.075 675.155, 598.548 677.359, 596.627 676.695 C 595.261 676.222, 595.312 673.793, 596.893 664 C 599.015 650.857, 599.281 648, 598.380 648 C 597.896 648, 597.451 649.013, 597.392 650.250 C 597.332 651.487, 596.732 655.650, 596.059 659.500 C 595.385 663.350, 594.597 669.022, 594.307 672.105 C 593.838 677.104, 593.997 677.766, 595.780 678.232 C 599.855 679.298, 600.043 678.789, 602.529 660 C 603.760 650.696, 603.544 651, 608.897 651 C 614.039 651, 616.689 649.238, 615.643 646.513 C 615.169 645.278, 612.993 645.018, 603.781 645.100 C 597.577 645.155, 591.600 645.492, 590.500 645.850 M 637.714 646.777 C 636.126 647.759, 633.652 651.116, 631.962 654.582 C 630.254 658.085, 627.923 661.238, 626.464 662.019 C 624.750 662.936, 624.145 663.881, 624.594 664.938 C 626.473 669.363, 626.191 670.678, 623.087 671.964 C 619.570 673.421, 618.979 676.383, 621.893 677.943 C 623.346 678.720, 624.393 678.479, 626.393 676.905 C 627.827 675.778, 629 674.282, 629 673.581 C 629 672.880, 629.721 670.863, 630.601 669.097 C 631.775 666.745, 632.777 665.969, 634.351 666.194 C 636.109 666.444, 636.599 667.361, 637.045 671.240 C 637.905 678.724, 642.470 681.074, 647.354 676.548 C 650.899 673.262, 650.737 671.903, 646.894 672.671 L 643.787 673.293 644.284 668.396 C 644.558 665.703, 645.334 659.933, 646.010 655.574 C 647.144 648.258, 647.099 647.545, 645.428 646.324 C 643.036 644.575, 641.089 644.689, 637.714 646.777 M 665.164 646.634 C 658.920 649.814, 657.191 656.426, 661.939 658.968 C 665.327 660.780, 667.064 659.255, 666.393 655.057 C 665.832 651.549, 666.007 651.225, 669.299 649.662 C 673.716 647.566, 675.097 647.579, 678.915 649.750 C 687.497 654.630, 686.622 671.293, 677.627 674.291 C 676.113 674.796, 674.622 674.955, 674.312 674.645 C 674.002 674.336, 674.518 669.811, 675.458 664.592 C 677.394 653.837, 676.986 651, 673.500 651 C 670.883 651, 670.418 651.990, 669.509 659.500 C 668.452 668.232, 666.931 672.785, 664.895 673.317 C 662.785 673.869, 662.238 677.935, 664.250 678.107 C 673.488 678.899, 678.067 678.724, 681.588 677.444 C 690.787 674.101, 694.368 664.958, 690.380 654.992 C 688.267 649.712, 682.613 646.344, 674.500 645.534 C 669.924 645.077, 667.708 645.338, 665.164 646.634 M 715 646.797 C 713.075 647.845, 710.203 650.614, 708.617 652.950 C 706.048 656.736, 705.729 658.072, 705.683 665.240 C 705.633 673.052, 705.723 673.363, 708.831 676.141 C 712.365 679.298, 715.405 679.693, 720.329 677.636 C 727.438 674.666, 731.590 666.134, 730.766 656.193 C 730.006 647.028, 722.641 642.638, 715 646.797 M 432.500 647 C 432.160 647.550, 432.352 648, 432.928 648 C 433.503 648, 434.608 649.520, 435.385 651.378 C 436.161 653.236, 437.292 655.062, 437.898 655.437 C 438.504 655.812, 439 657.640, 439 659.500 C 439 661.360, 439.450 663.160, 440 663.500 C 440.550 663.840, 441.007 665.104, 441.015 666.309 C 441.033 668.981, 443.302 675.702, 444.636 677.036 C 446.452 678.852, 449.378 675.642, 448.628 672.656 C 448.262 671.195, 447.395 670, 446.702 670 C 445.972 670, 444.683 666.955, 443.634 662.750 C 441.339 653.554, 439.827 648.834, 438.669 647.250 C 437.577 645.757, 433.374 645.586, 432.500 647 M 551 647 C 549.667 647.862, 549.667 647.971, 551 647.987 C 552.725 648.007, 558.058 658.413, 558.023 661.691 C 558.010 662.896, 558.450 664.160, 559 664.500 C 559.550 664.840, 560 666.072, 560 667.238 C 560 669.905, 562.189 676.284, 563.404 677.157 C 564.838 678.189, 566.752 677.057, 567.333 674.834 C 568.013 672.236, 567.153 670, 565.474 670 C 564.239 670, 562.518 664.731, 561.306 657.241 C 561.016 655.448, 560.379 653.734, 559.890 653.432 C 559.400 653.129, 559 651.799, 559 650.476 C 559 646.860, 554.346 644.838, 551 647 M 668 647.175 C 662.930 648.617, 660.848 650.841, 661.201 654.441 C 661.640 658.915, 664.600 659.109, 664.600 654.663 C 664.600 650.936, 666.826 648.009, 669.679 647.985 C 670.680 647.976, 672.175 647.533, 673 647 C 674.333 646.138, 674.333 646.039, 673 646.106 C 672.175 646.147, 669.925 646.628, 668 647.175 M 718.302 649.264 C 714.094 653.711, 713.352 655.497, 712.563 663.070 C 711.230 675.879, 716.207 679.128, 721.837 669.125 C 722.572 667.819, 723.420 663.492, 723.721 659.509 C 724.210 653.038, 724.041 652.041, 722.134 650.134 C 720.102 648.102, 720.092 648, 721.922 648 C 724.431 648, 726.451 653.949, 725.612 658.867 C 725.272 660.865, 724.709 664.075, 724.362 666 C 724.016 667.925, 722.843 670.763, 721.757 672.308 C 718.756 676.573, 720.716 676.978, 724.481 672.870 C 731.384 665.337, 731.358 651.830, 724.432 647.809 L 721.364 646.029 718.302 649.264 M 641.354 650.250 C 641.274 652.038, 640.877 655.644, 640.472 658.264 C 639.874 662.136, 639.294 663.139, 637.371 663.622 C 634.085 664.447, 632.232 663.526, 631.714 660.811 L 631.272 658.500 631.136 660.750 C 631.045 662.264, 630.365 663, 629.059 663 C 626.365 663, 625.997 664.196, 628.081 666.173 C 629.602 667.615, 629.924 667.641, 630.415 666.362 C 630.811 665.329, 632.127 664.973, 634.742 665.189 C 638.428 665.494, 638.506 665.586, 638.820 669.998 C 639.214 675.550, 641.409 678.387, 644.166 676.911 C 646.049 675.903, 646.049 675.858, 644.136 674.193 C 642.087 672.409, 642.138 670.792, 644.728 655.500 C 645.775 649.323, 645.351 647, 643.177 647 C 641.982 647, 641.458 647.934, 641.354 650.250 M 425.200 649.200 C 423.268 651.132, 423.678 656, 425.773 656 C 427.174 656, 427.545 655.162, 427.545 652 C 427.545 647.761, 427.132 647.268, 425.200 649.200 M 474.649 651.250 C 471.740 655.105, 469 661.428, 469 664.286 C 469 665.409, 469.757 668.043, 470.682 670.139 C 472.640 674.577, 479.634 678.560, 483.684 677.543 C 486.796 676.762, 485.694 675, 482.094 675 C 480.561 675, 478.225 674.061, 476.903 672.914 C 474.747 671.042, 474.505 670.040, 474.545 663.164 C 474.582 656.967, 475.032 654.782, 476.894 651.750 C 479.720 647.149, 478.028 646.772, 474.649 651.250 M 487.812 651.514 C 488.037 653.446, 487.667 655.696, 486.989 656.514 C 485.965 657.747, 486.105 658, 487.810 658 C 490.286 658, 491.399 655.091, 490.495 650.978 C 489.549 646.669, 487.299 647.118, 487.812 651.514 M 543.713 650 C 541.925 652.552, 542.588 656, 544.867 656.001 C 546.087 656.001, 546.475 655.113, 546.399 652.483 C 546.271 647.984, 545.575 647.341, 543.713 650 M 585.980 650.038 C 584.590 652.634, 585.628 656, 587.817 656 C 589.114 656, 589.500 655.082, 589.500 652 C 589.500 647.613, 587.788 646.659, 585.980 650.038 M 681.977 649.977 C 684.340 652.340, 687.006 658.407, 686.985 661.372 C 686.960 664.875, 684.520 670.818, 682.007 673.492 C 680.338 675.269, 680.074 676, 681.103 676 C 685.075 676, 691 667.953, 691 662.560 C 691 658.051, 687.946 652.130, 684.531 650.019 C 680.392 647.461, 679.445 647.445, 681.977 649.977 M 712.291 650.250 C 708.462 654.438, 707 658.659, 707 665.527 C 707 671.518, 707.280 672.434, 709.923 675.077 C 711.531 676.685, 713.893 677.982, 715.173 677.960 C 717.445 677.921, 717.436 677.885, 714.795 676.451 C 709.511 673.583, 709.208 661.675, 714.167 651.750 C 716.267 647.546, 715.399 646.852, 712.291 650.250 M 520.219 649.860 C 518.586 650.875, 514.771 660.821, 515.539 662.063 C 515.858 662.578, 516.899 663, 517.853 663 C 519.156 663, 519.914 661.526, 520.902 657.075 C 522.348 650.555, 522.168 648.649, 520.219 649.860 M 637.201 651.258 C 635.383 653.448, 633.030 661.430, 633.935 662.335 C 635.705 664.105, 639 661.974, 639 659.058 C 639 657.513, 639.281 654.844, 639.625 653.125 C 640.273 649.887, 639.093 648.979, 637.201 651.258 M 671.566 656.250 C 671.203 658.038, 670.684 661.075, 670.414 663 C 669.069 672.598, 668.891 673.091, 666.446 674.020 C 663.506 675.138, 663.286 676.638, 665.937 677.480 C 668.916 678.425, 671.932 675.938, 672.570 672.010 C 672.883 670.079, 673.746 665.359, 674.487 661.520 C 675.228 657.681, 675.620 654.194, 675.358 653.770 C 674.218 651.925, 672.174 653.262, 671.566 656.250 M 870.500 663.125 C 845.990 663.739, 821.972 665.264, 819 666.397 C 818.175 666.712, 813.675 667.439, 809 668.014 C 804.325 668.589, 798.025 669.478, 795 669.990 C 769.197 674.355, 760.514 676.067, 743.750 680.098 C 741.688 680.594, 738.313 681.397, 736.250 681.883 C 734.188 682.368, 729.800 683.537, 726.500 684.479 C 723.200 685.422, 718.925 686.566, 717 687.023 C 715.075 687.479, 710.125 688.814, 706 689.990 C 701.875 691.166, 696.700 692.575, 694.500 693.122 C 692.300 693.668, 690.073 694.539, 689.550 695.057 C 689.028 695.576, 687.784 696, 686.787 696 C 685.789 696, 680.142 697.616, 674.237 699.592 C 668.332 701.567, 662.150 703.552, 660.500 704.002 C 658.850 704.452, 650.900 707.111, 642.833 709.910 C 634.766 712.710, 627.255 715, 626.142 715 C 625.029 715, 623.873 715.396, 623.574 715.881 C 623.274 716.365, 622.010 716.997, 620.765 717.284 C 619.519 717.572, 612.200 719.462, 604.500 721.485 C 596.800 723.508, 587.800 725.591, 584.500 726.113 C 581.200 726.636, 575.125 727.604, 571 728.264 C 561.185 729.835, 518.815 729.835, 509 728.264 C 494.637 725.965, 489.475 725.046, 485.500 724.079 C 471.832 720.755, 467.976 719.757, 463.500 718.387 C 460.750 717.546, 457.600 716.473, 456.500 716.004 C 455.400 715.535, 453.375 714.942, 452 714.687 C 449.740 714.269, 421.341 704.915, 416.500 702.995 C 413.436 701.780, 408.962 700.356, 404 699.019 C 401.525 698.351, 398.719 697.399, 397.764 696.903 C 396.809 696.406, 394.986 696, 393.714 696 C 392.441 696, 390.973 695.576, 390.450 695.057 C 389.928 694.539, 387.700 693.668, 385.500 693.122 C 383.300 692.575, 378.125 691.165, 374 689.987 C 369.875 688.809, 365.375 687.622, 364 687.348 C 362.625 687.074, 360.600 686.493, 359.500 686.058 C 357.632 685.319, 352.249 683.883, 344 681.923 C 323.041 676.942, 322.682 676.864, 308.250 674.086 C 287.843 670.157, 261.682 666.256, 245.500 664.728 C 228.474 663.120, 154.001 663.100, 136 664.699 C 115.025 666.561, 93.253 669.782, 92.409 671.147 C 92.119 671.616, 91.195 672, 90.355 672 C 89.516 672, 85.844 673.462, 82.195 675.250 C 73.163 679.675, 63.546 689.336, 59.053 698.500 C 55.733 705.269, 55.618 705.899, 55.560 717.599 C 55.518 725.979, 55.927 730.589, 56.890 732.599 C 57.655 734.194, 59.005 737.075, 59.890 739 C 63.758 747.410, 79.616 760, 86.340 760 C 87.639 760, 90.166 760.511, 91.956 761.134 C 99.103 763.626, 115.473 757.375, 123.214 749.199 C 137.140 734.491, 134.012 710.617, 117.032 702.003 C 110.747 698.815, 99.460 698.822, 92.678 702.017 C 82.576 706.775, 78.222 717.478, 84.669 721.703 C 86.634 722.990, 87.563 723.065, 89.672 722.104 C 92.038 721.026, 92.210 720.550, 91.667 716.584 C 90.989 711.641, 92.106 710.107, 98.254 707.538 C 104.755 704.822, 111.870 706.191, 117.656 711.271 C 130.274 722.350, 125.821 742.509, 108.865 751.068 C 103.890 753.580, 101.914 754, 95.088 754 C 90.704 754, 86.861 753.585, 86.548 753.077 C 86.234 752.569, 84.628 751.858, 82.980 751.496 C 78.074 750.418, 69.621 741.855, 65.949 734.241 C 58.591 718.987, 62.337 700.259, 75.125 688.360 C 81.057 682.840, 96.222 676.044, 102.674 676.015 C 104.419 676.007, 108.019 675.573, 110.674 675.052 C 127.296 671.786, 149.995 670.500, 191 670.500 C 225.224 670.500, 243.383 671.396, 263 674.053 C 267.125 674.612, 273.650 675.498, 277.500 676.022 C 284.902 677.030, 291.655 678.159, 301.500 680.034 C 304.800 680.663, 309.525 681.547, 312 681.999 C 314.475 682.451, 320.325 683.726, 325 684.834 C 329.675 685.941, 334.625 687.060, 336 687.321 C 339.443 687.975, 361.387 693.754, 367.500 695.617 C 370.250 696.455, 374.975 697.798, 378 698.602 C 385.772 700.665, 397.137 704.055, 399.500 705.015 C 403.493 706.636, 460.594 725.294, 464 726.090 C 470.878 727.698, 475.560 728.884, 479.500 730.017 C 484.358 731.413, 491.471 732.797, 499.500 733.908 C 502.800 734.364, 507.525 735.314, 510 736.018 C 517.165 738.055, 561.393 737.802, 571 735.668 C 575.125 734.751, 579.818 734.001, 581.429 734.001 C 583.040 734, 585.740 733.579, 587.429 733.064 C 592.621 731.482, 604.297 728.801, 608.256 728.281 C 610.322 728.010, 612.261 727.386, 612.565 726.894 C 612.869 726.402, 613.989 726, 615.054 726 C 616.766 726, 648.340 716.136, 653.500 713.989 C 654.600 713.532, 660.675 711.501, 667 709.476 C 673.325 707.451, 679.400 705.437, 680.500 704.999 C 682.962 704.019, 694.435 700.612, 702.500 698.465 C 705.800 697.587, 710.750 696.200, 713.500 695.383 C 716.250 694.566, 720.075 693.508, 722 693.032 C 723.925 692.556, 729.100 691.201, 733.500 690.022 C 737.900 688.842, 743.300 687.505, 745.500 687.050 C 747.700 686.596, 754.900 685.029, 761.500 683.568 C 774.910 680.600, 793.407 677.163, 802.500 675.949 C 836.631 671.394, 843.508 670.897, 880.500 670.315 C 918.226 669.722, 935.875 670.648, 971 675.065 C 984.383 676.748, 992.154 679.492, 1001 685.662 C 1009.210 691.388, 1013.706 697.743, 1016.607 707.720 C 1018.806 715.283, 1018.070 726.746, 1014.961 733.359 C 1012.058 739.536, 1004.250 748.072, 999.336 750.443 C 997.226 751.461, 994.719 752.678, 993.764 753.147 C 991.471 754.273, 977.452 754.246, 975.236 753.111 C 974.281 752.622, 971.764 751.384, 969.641 750.361 C 961.938 746.646, 955 735.689, 955 727.240 C 955 722.728, 957.882 715.391, 960.801 712.471 C 967.296 705.977, 975.151 704.549, 983.460 708.353 L 989.130 710.949 988.476 715.314 C 987.971 718.679, 988.202 720.059, 989.482 721.339 C 993.216 725.073, 998.200 721.716, 998.200 715.468 C 998.200 710.709, 993.912 705.348, 987.580 702.190 C 980.782 698.800, 969.028 698.767, 962.854 702.120 C 946.588 710.952, 943.166 732.514, 955.618 747.710 C 963.855 757.761, 978.181 763.337, 989.707 760.976 C 997.568 759.367, 1000.766 758.135, 1005.665 754.831 C 1012.082 750.502, 1017.461 744.307, 1021.077 737.081 C 1024.311 730.617, 1024.368 730.268, 1024.297 717.500 C 1024.225 704.818, 1024.142 704.341, 1020.906 698 C 1014.033 684.533, 999.188 673.363, 983.500 669.855 C 961.132 664.853, 913.892 662.040, 870.500 663.125 M 393.561 665.348 C 390.251 668.658, 390.267 672.278, 393.601 674.901 C 396.828 677.439, 402.731 678.669, 404.275 677.125 C 404.894 676.506, 406.183 676, 407.141 676 C 408.099 676, 409.157 675.555, 409.493 675.012 C 409.878 674.388, 408.518 674.236, 405.802 674.599 C 400.908 675.253, 396.251 673.819, 395.311 671.368 C 394.960 670.453, 395.189 668.339, 395.819 666.668 C 397.341 662.635, 396.668 662.241, 393.561 665.348 M 624.656 672.618 C 621.790 675.084, 621.588 678.479, 624.371 677.411 C 625.790 676.867, 628.640 671.305, 627.885 670.553 C 627.673 670.342, 626.220 671.272, 624.656 672.618 M 430.667 671.667 C 429.620 672.714, 429.888 677, 431 677 C 431.550 677, 432 675.650, 432 674 C 432 670.893, 431.796 670.537, 430.667 671.667 M 155 679.047 C 127.211 680.582, 103.086 683.485, 101.030 685.542 C 98.189 688.383, 100.956 690.430, 108.604 691.143 C 119.630 692.172, 123.671 693.874, 130.819 700.498 C 135.310 704.659, 139.372 712.137, 140.549 718.409 C 141.330 722.573, 143.657 724.331, 146.374 722.811 C 150.676 720.403, 144.433 703.697, 136.129 695.392 C 133.713 692.976, 131.346 691, 130.868 691 C 130.391 691, 130 690.345, 130 689.545 C 130 687.677, 132.865 687.263, 152 686.369 C 185.475 684.806, 229.133 685.581, 248 688.074 C 284.321 692.874, 290.962 693.859, 292.215 694.633 C 292.757 694.968, 295.742 695.604, 298.850 696.046 C 301.957 696.489, 308.775 697.813, 314 698.988 C 331.558 702.937, 336.015 702.773, 334.573 698.231 C 334.029 696.514, 328.346 694.567, 316.500 692.038 C 295.857 687.631, 294.253 687.343, 278 685.137 C 274.425 684.651, 269.025 683.773, 266 683.186 C 243.919 678.896, 192.462 676.977, 155 679.047 M 853 679.069 C 839.680 679.976, 823.109 681.758, 814.500 683.209 C 811.200 683.766, 805.575 684.626, 802 685.120 C 787.381 687.142, 782.946 687.897, 771 690.394 C 752.297 694.305, 746.067 696.214, 745.427 698.231 C 743.984 702.777, 748.478 702.940, 766 698.975 C 771.225 697.793, 777.975 696.461, 781 696.014 C 784.025 695.567, 788.300 694.743, 790.500 694.183 C 795.800 692.834, 805.258 691.373, 817.500 690.015 C 823 689.404, 830.425 688.489, 834 687.981 C 855.532 684.923, 921.769 684.701, 945.750 687.607 C 950.743 688.213, 951.317 690.109, 947.237 692.519 C 943.908 694.486, 937.417 702.981, 935.027 708.500 C 934.074 710.700, 932.980 714.609, 932.595 717.187 C 931.978 721.325, 932.144 722.007, 934.012 723.006 C 936.827 724.513, 938.589 723.007, 939.463 718.347 C 942.385 702.771, 956.386 691.055, 972.128 691.015 C 978.410 690.998, 981.208 689.139, 979.360 686.208 C 978.026 684.095, 974.840 683.348, 961.500 682.022 C 923.997 678.295, 881.391 677.135, 853 679.069 M 337.667 698.667 C 336.407 699.926, 336.980 704, 338.417 704 C 339.196 704, 339.983 704.383, 340.167 704.850 C 340.350 705.318, 342.389 705.947, 344.698 706.248 C 349.780 706.911, 353.082 705.069, 351.487 702.461 C 349.770 699.653, 339.500 696.833, 337.667 698.667 M 733.500 699.346 C 727.612 701.611, 726.877 702.734, 729.539 705.396 C 731.180 707.037, 735.128 706.761, 740.288 704.644 C 742.441 703.761, 743.011 702.931, 742.788 701 C 742.557 698.995, 741.906 698.470, 739.500 698.346 C 737.850 698.262, 735.150 698.712, 733.500 699.346 M 233 743.949 C 231.625 744.417, 229.197 744.845, 227.605 744.900 C 223.169 745.053, 211.044 751.337, 205.857 756.172 C 200.980 760.718, 194 770.856, 194 773.393 C 194 774.212, 193.550 775.160, 193 775.500 C 192.450 775.840, 192 776.883, 192 777.818 C 192 778.754, 191.100 780.081, 190 780.768 C 187.085 782.588, 183.722 780.387, 184.340 777.063 C 184.954 773.765, 184.144 772, 182.014 772 C 179.720 772, 177.688 776.910, 178.555 780.362 C 179.371 783.614, 183.451 787, 186.553 787 C 191.250 787, 192 787.912, 192 793.621 C 192 796.594, 192.422 799.809, 192.937 800.764 C 193.453 801.719, 194.908 804.689, 196.171 807.363 C 198.884 813.108, 207.326 821.160, 213.856 824.231 C 220.090 827.162, 232.956 827.842, 239.690 825.596 C 252.118 821.452, 260.977 809.659, 260.992 797.239 C 261.007 785.163, 253.708 775.842, 241.688 772.588 C 235.761 770.984, 234.896 770.974, 229.795 772.457 C 218.163 775.839, 212.102 784.933, 219.076 788.539 C 221.887 789.993, 222.362 789.993, 224.576 788.542 C 226.325 787.396, 227 786.041, 227 783.677 C 227 779.070, 228.555 778, 235.250 778 C 247.402 778, 255 785.502, 255 797.500 C 255 804.132, 252.799 808.927, 247.335 814.201 C 241.929 819.419, 237.472 821.004, 228.282 820.978 C 213.312 820.936, 203.213 812.834, 198.392 797 C 192.465 777.534, 206.649 755.803, 228.467 750.920 C 235.560 749.333, 252.900 750.248, 260 752.585 C 277.658 758.396, 298.147 771.515, 347.059 808.327 C 354.095 813.622, 377.339 829.946, 388.639 837.527 C 398.317 844.020, 400.358 845, 404.202 845 C 407.781 845, 409.158 844.445, 411.413 842.091 C 415 838.347, 415.219 832.927, 411.926 829.421 C 409.037 826.346, 404 826.056, 404 828.965 C 404 830.045, 404.900 831.411, 406 832 C 408.848 833.524, 408.625 837.758, 405.625 839.125 C 403.508 840.090, 401.908 839.301, 390.875 831.854 C 384.069 827.259, 378.050 823.320, 377.500 823.100 C 376.950 822.880, 376.275 822.408, 376 822.051 C 375.725 821.695, 371.675 818.737, 367 815.479 C 362.325 812.221, 357.628 808.755, 356.561 807.778 C 355.495 806.800, 354.070 806, 353.395 806 C 352.719 806, 352.017 805.597, 351.833 805.105 C 351.650 804.613, 347.675 801.393, 343 797.949 C 338.325 794.506, 334.275 791.392, 334 791.028 C 333.725 790.665, 331.250 788.849, 328.500 786.992 C 325.750 785.136, 323.350 783.253, 323.167 782.808 C 322.983 782.364, 322.233 782, 321.500 782 C 320.767 782, 320.017 781.609, 319.833 781.131 C 319.448 780.127, 293.900 762.786, 286.562 758.548 C 273.189 750.823, 261.042 745.974, 251.500 744.549 C 243.647 743.376, 235.460 743.110, 233 743.949 M 831 744.098 C 828.525 744.634, 824.250 745.563, 821.500 746.162 C 816.457 747.260, 801.646 753.347, 800 754.998 C 799.725 755.274, 797.475 756.577, 795 757.894 C 790.140 760.480, 762.803 778.383, 760.750 780.325 C 760.062 780.975, 755.450 784.400, 750.500 787.935 C 745.550 791.471, 739.475 796.004, 737 798.010 C 734.525 800.015, 730.475 803.067, 728 804.790 C 722.127 808.880, 705.785 820.627, 704.500 821.681 C 703.950 822.132, 698.841 825.651, 693.146 829.501 C 675.791 841.233, 675.996 841.139, 673.429 838.571 C 671.317 836.460, 671.640 832.907, 674 832.290 C 675.294 831.951, 676 830.926, 676 829.383 C 676 825.887, 670.893 826.049, 668.073 829.635 C 662.875 836.243, 667.428 845, 676.061 845 C 679.951 845, 681.902 844.057, 691.507 837.536 C 708.142 826.241, 715.848 820.880, 723 815.628 C 726.575 813.002, 730.625 810.028, 732 809.019 C 741.748 801.866, 751.580 794.484, 752 794.004 C 752.275 793.689, 755.650 791.224, 759.500 788.526 C 763.350 785.828, 766.725 783.369, 767 783.060 C 767.950 781.995, 776.829 776, 777.456 776 C 777.802 776, 780.429 774.296, 783.293 772.213 C 794.201 764.280, 809.670 756.067, 820.500 752.458 C 827.182 750.231, 845.480 749.348, 851.714 750.951 C 864.471 754.230, 873.584 761.348, 878.930 772.206 C 890.102 794.899, 875.854 821.014, 852.312 820.994 C 843.026 820.987, 839.067 819.691, 833.586 814.866 C 827.386 809.409, 825 804.549, 825 797.378 C 825 785.941, 833.047 778, 844.638 778 C 851.421 778, 853 779.055, 853 783.585 C 853 788.059, 856.872 790.647, 860.778 788.784 C 868.309 785.191, 861.860 775.629, 849.753 772.435 C 845.287 771.257, 843.770 771.287, 838.303 772.660 C 834.836 773.531, 832 774.638, 832 775.122 C 832 775.605, 831.413 776, 830.696 776 C 828.523 776, 823.251 782.202, 821.062 787.333 C 815.205 801.060, 822.085 817.018, 837 824.302 C 840.721 826.119, 843.232 826.500, 851.500 826.500 C 860.494 826.500, 862.076 826.213, 867.222 823.646 C 874.308 820.112, 880.833 813.710, 883.840 807.341 C 885.097 804.679, 886.547 801.719, 887.063 800.764 C 887.578 799.809, 888 796.861, 888 794.214 C 888 788.752, 889.230 787, 893.065 787 C 898.979 787, 903.243 780.416, 900.936 774.846 C 898.864 769.842, 894.645 771.615, 895.660 777.063 C 896.278 780.387, 892.915 782.588, 890 780.768 C 888.900 780.081, 888 779.027, 888 778.425 C 888 777.823, 886.391 774.024, 884.424 769.982 C 879.946 760.781, 872.652 753.431, 863.555 748.952 C 854.327 744.409, 839.658 742.222, 831 744.098 M 238.667 759.667 C 238.300 760.033, 238 761.110, 238 762.060 C 238 763.959, 239.932 765, 243.455 765 C 246.422 765, 254.474 768.573, 257.741 771.338 C 263.272 776.021, 265.065 778.271, 267.484 783.559 C 269.543 788.061, 270 790.602, 270 797.561 C 270 804.528, 270.297 806.177, 271.645 806.694 C 274.382 807.744, 276 804.207, 276 797.175 C 276 789.865, 274.635 784.386, 271.301 778.309 C 270.036 776.003, 269.400 773.871, 269.888 773.569 C 270.620 773.117, 279.265 777.650, 288.450 783.301 C 294.085 786.768, 314.314 800.880, 319.729 805.121 C 323.154 807.804, 326.245 810, 326.597 810 C 326.948 810, 328.709 811.237, 330.509 812.750 C 339.392 820.212, 342.481 821.919, 344.126 820.274 C 346.773 817.627, 342.952 814.252, 314.052 793.711 C 308.798 789.978, 303.795 786.378, 302.933 785.711 C 301.342 784.481, 299.686 783.444, 290.157 777.713 C 287.218 775.946, 283.168 773.487, 281.157 772.249 C 275.581 768.816, 262.926 762.842, 259 761.788 C 249.734 759.302, 240.043 758.291, 238.667 759.667 M 828.500 760.040 C 826.300 760.474, 822.914 761.247, 820.976 761.758 C 816.478 762.944, 801.632 770.082, 796.696 773.432 C 794.614 774.844, 792.681 776, 792.401 776 C 792.120 776, 789.240 777.800, 786 780 C 782.760 782.200, 779.673 784, 779.138 784 C 778.604 784, 778.017 784.354, 777.833 784.787 C 777.650 785.220, 773.675 788.244, 769 791.507 C 752.152 803.267, 735.494 816.334, 735.197 818.023 C 734.344 822.873, 740.688 820.361, 751.500 811.568 C 758.436 805.927, 783.063 788.528, 791.534 783.283 C 794.292 781.575, 808.294 773.570, 809.228 773.167 C 810.604 772.572, 810.046 775.856, 808.199 779.220 C 805.359 784.392, 804 790.203, 804 797.175 C 804 804.207, 805.618 807.744, 808.355 806.694 C 809.705 806.176, 810 804.521, 810 797.468 C 810 785.754, 813.363 778.611, 822.109 771.750 C 825.439 769.138, 829 767, 830.023 767 C 831.045 767, 832.160 766.550, 832.500 766 C 832.840 765.450, 834.405 765, 835.977 765 C 840.355 765, 842 764.015, 842 761.393 C 842 759.187, 841.628 759.010, 837.250 759.125 C 834.638 759.194, 830.700 759.605, 828.500 760.040 M 509.158 792.273 C 507.320 792.861, 503.945 795.223, 501.658 797.523 C 494.622 804.597, 493.122 814.154, 497.573 823.562 C 498.988 826.553, 500.563 829, 501.073 829 C 502.494 829, 502.175 831.996, 500.750 832.028 C 500.063 832.043, 482.750 832.165, 462.279 832.299 C 424.135 832.549, 421.935 832.782, 423.336 836.433 C 423.877 837.843, 435.543 838, 540 838 C 644.457 838, 656.123 837.843, 656.664 836.433 C 657.977 833.012, 655.347 832.503, 635.697 832.373 C 625.139 832.303, 607.837 832.190, 597.250 832.123 C 580.860 832.018, 578 831.777, 578 830.500 C 578 829.675, 578.417 829, 578.927 829 C 580.622 829, 585 818.220, 585 814.046 C 585 803.722, 578.447 794.357, 569.677 792.149 C 562.631 790.375, 555.241 792.743, 550.437 798.314 C 547.009 802.290, 546.847 802.804, 547.200 808.570 C 547.765 817.794, 552.483 822.894, 560.518 822.965 C 567.623 823.027, 574.549 816.478, 572.639 811.502 C 571.948 809.701, 566.903 809.497, 565.200 811.200 C 564.540 811.860, 564 813.405, 564 814.633 C 564 820.034, 554.424 817.338, 552.815 811.483 C 551.554 806.897, 552.802 803.309, 556.805 800.009 C 566.269 792.209, 579 800.012, 579 813.612 C 579 820.662, 576.454 825.122, 570.148 829.121 C 566.231 831.605, 564.622 832, 558.419 832 C 554.016 832, 550.120 831.425, 548.370 830.517 C 545.851 829.210, 545.512 828.484, 545.506 824.388 C 545.501 820.535, 545.048 819.402, 542.854 817.753 C 540.256 815.801, 540.148 815.799, 537.010 817.632 C 534.018 819.380, 533.840 819.795, 534.243 824.076 C 534.638 828.282, 534.438 828.786, 531.755 830.326 C 529.780 831.459, 526.551 832, 521.757 832 C 515.988 832, 513.877 831.532, 510.364 829.473 C 498.983 822.803, 497.691 806.287, 507.999 799.250 C 517.390 792.840, 530.055 800.923, 527.194 811.500 C 526.112 815.499, 519.986 819.063, 517.599 817.082 C 516.720 816.352, 516 815, 516 814.078 C 516 811.622, 513.974 810, 510.907 810 C 506.861 810, 505.675 814.210, 508.750 817.653 C 513.839 823.349, 520.660 824.609, 526.585 820.948 C 535.215 815.614, 535.203 801.104, 526.564 795.184 C 520.711 791.173, 515.382 790.282, 509.158 792.273 M 348.380 823.452 C 347.627 825.415, 348.223 826.189, 353.065 829.545 C 357.137 832.367, 357.246 832.385, 358.672 830.461 C 360.008 828.659, 359.823 828.236, 356.396 825.250 C 352.419 821.784, 349.289 821.082, 348.380 823.452 M 725.500 823.827 C 720.726 826.769, 719.787 828.326, 721.430 830.574 C 722.780 832.420, 722.971 832.379, 727.163 829.342 C 733.824 824.517, 732.344 819.610, 725.500 823.827 M 430.323 845.601 C 429.539 847.643, 431.628 848.965, 435.668 848.985 C 439.744 849.004, 442 848.119, 442 846.500 C 442 843.642, 431.388 842.825, 430.323 845.601 M 445.338 845.562 C 445.006 846.427, 445.157 847.557, 445.672 848.072 C 446.247 848.647, 483.037 848.911, 540.555 848.755 C 633.748 848.502, 634.500 848.484, 634.500 846.500 C 634.500 844.516, 633.748 844.498, 540.221 844.245 C 455.261 844.015, 445.882 844.145, 445.338 845.562 M 639.250 844.662 C 637.490 845.372, 637.694 847.669, 639.582 848.393 C 641.900 849.283, 647.286 849.105, 648.896 848.086 C 651.682 846.321, 649.295 843.996, 644.781 844.079 C 642.427 844.122, 639.938 844.385, 639.250 844.662" stroke="none" fill="#c7a07a" fill-rule="evenodd"/><path d="M 331.500 503.211 C 313.084 506.658, 305.246 512.798, 304.748 524.169 C 304.538 528.959, 304.868 530.230, 306.876 532.367 C 308.182 533.758, 310.507 535.172, 312.042 535.509 C 315.683 536.309, 322.628 534.412, 323.397 532.407 C 324.250 530.186, 324.242 530.174, 321.759 529.820 C 318.365 529.335, 316.490 524.686, 318.071 520.675 C 320.654 514.128, 325.390 510.686, 334.977 508.393 C 342.256 506.651, 346.937 506.682, 356 508.534 C 369.661 511.324, 375.961 518.095, 375.974 530 C 375.980 535.402, 375.474 537.384, 372.979 541.734 C 369.819 547.244, 366.893 549.696, 361.045 551.734 C 356.921 553.172, 347.373 553.413, 346.562 552.101 C 346.257 551.607, 346.901 546.094, 347.993 539.851 C 350.437 525.886, 350.571 518.714, 348.429 516.571 C 347.399 515.541, 345.046 515, 341.601 515 L 336.344 515 335.217 524.750 C 334.596 530.112, 333.634 537.200, 333.078 540.500 C 331.684 548.780, 330.382 556.373, 329.093 563.750 C 324.263 591.379, 324.651 593.334, 334.868 592.796 L 340.500 592.500 341.125 584 C 341.824 574.498, 343.438 563.408, 344.509 560.750 C 345.065 559.370, 346.422 559, 350.933 559 C 358.498 559, 360.340 561.008, 363.910 573.150 C 367.385 584.965, 369.291 588.597, 373.299 591.040 C 379.893 595.062, 389.175 593.011, 396.117 586 L 400.138 581.939 405.107 586.406 C 408.974 589.883, 411.342 591.137, 415.783 592.059 C 427.038 594.395, 440.650 591.027, 448.774 583.894 C 451.887 581.160, 454 580.826, 454 583.068 C 454 585.019, 459.349 589.922, 463.127 591.434 C 470.430 594.356, 477.018 592.886, 482.437 587.123 C 484.052 585.405, 485.954 584, 486.662 584 C 488.040 584, 487.902 585.479, 485.499 596.500 C 484.779 599.800, 483.667 605.875, 483.029 610 C 482.391 614.125, 481.448 619.127, 480.934 621.116 C 480.420 623.105, 480 626.781, 480 629.286 L 480 633.839 484.980 635.493 C 492.595 638.023, 493.628 637.277, 494.353 628.724 C 494.969 621.460, 495.563 617.653, 498.525 602 C 499.409 597.325, 500.595 590.800, 501.159 587.500 C 501.723 584.200, 502.609 579.025, 503.127 576 C 503.644 572.975, 504.479 568.025, 504.981 565 C 506.621 555.126, 509.454 539.917, 510.615 534.750 C 511.188 532.201, 511.003 532, 508.084 532 C 504.052 532, 498.145 534.458, 497.379 536.455 C 496.598 538.491, 495.351 538.405, 492.931 536.150 C 490.867 534.227, 484.662 532, 481.370 532 C 478.389 532, 469.345 535.583, 466.319 537.964 C 463.115 540.484, 456.079 549.923, 456.032 551.764 C 456.015 552.459, 455.582 553.809, 455.072 554.764 C 454.058 556.661, 452 569.268, 452 573.582 C 452 576.390, 451.153 577.310, 444.500 581.736 C 440.925 584.114, 439.535 584.402, 431.423 584.448 C 423.002 584.496, 422.082 584.299, 418.708 581.726 C 414.453 578.481, 411.717 573.315, 412.176 569.391 C 412.439 567.139, 413.160 566.464, 416 565.813 C 431.269 562.314, 443.023 555.198, 444.927 548.301 C 447.160 540.216, 443.152 534.901, 433.308 532.889 C 427.560 531.715, 426.604 531.794, 419.994 534.002 C 411.517 536.833, 403.804 543.590, 400.022 551.500 C 397.967 555.797, 397.617 558.075, 397.533 567.700 C 397.479 573.859, 397.224 579.063, 396.967 579.263 C 387.011 587.030, 383.295 585.397, 378.558 571.176 C 375.847 563.032, 373.057 559.549, 367.750 557.679 C 364.119 556.400, 365.445 555.259, 375 551.442 C 380.031 549.431, 387.364 543.017, 389.686 538.594 C 391.694 534.772, 391.689 525.466, 389.678 520.719 C 387.081 514.590, 379.709 508.732, 370.500 505.479 C 361.760 502.392, 342.013 501.244, 331.500 503.211 M 603.635 506.073 C 601.493 507.757, 601 508.979, 601 512.597 C 601 516.503, 601.328 517.174, 603.674 518.066 C 607.670 519.585, 611.801 518.285, 613.517 514.966 C 615.576 510.985, 615.383 509.292, 612.545 506.455 C 609.547 503.456, 607.095 503.351, 603.635 506.073 M 704.690 514.750 C 704.455 515.163, 703.946 518.403, 703.559 521.951 C 702.605 530.694, 701.854 531.823, 696.745 532.193 C 693.257 532.445, 692.444 532.890, 692.189 534.686 C 691.922 536.563, 692.416 536.916, 695.689 537.186 L 699.500 537.500 699.378 542.500 C 699.311 545.250, 698.713 550.650, 698.049 554.500 C 697.384 558.350, 696.494 563.750, 696.070 566.500 C 695.163 572.386, 694.358 574.505, 691.568 578.347 C 687.696 583.679, 680.731 585.655, 677.807 582.250 C 674.779 578.724, 674.799 576.354, 678.016 557.500 C 680.234 544.508, 680.280 543.109, 678.605 539.580 C 677.698 537.669, 675.582 535.126, 673.903 533.931 C 670.366 531.413, 665.692 531.629, 659.430 534.600 C 655.491 536.469, 648.203 543.027, 646.315 546.402 C 644.415 549.797, 643.166 547.266, 643.721 541.144 C 644.203 535.825, 644.037 535.139, 641.903 533.645 C 640.612 532.740, 637.660 532, 635.345 532 C 630.501 532, 630.466 532.063, 629.540 542.500 C 629.198 546.350, 628.500 551.525, 627.988 554 C 627.477 556.475, 626.553 561.414, 625.934 564.975 C 624.529 573.075, 621.979 578.151, 617.665 581.442 C 613.502 584.617, 610.005 584.698, 607.174 581.686 C 604.542 578.884, 604.417 574.905, 606.585 563 C 608.893 550.329, 609.957 542.881, 609.980 539.250 C 610.009 534.532, 607.047 532, 601.500 532 C 599.025 532, 596.989 532.112, 596.976 532.250 C 596.226 539.972, 595.536 545.122, 594.330 552 C 593.510 556.675, 592.512 562.975, 592.111 566 C 591.164 573.153, 588.629 578.283, 584.476 581.450 C 580.588 584.416, 576.854 584.711, 574.011 582.278 C 572.384 580.885, 572 579.330, 572 574.144 C 572 570.617, 572.420 566.105, 572.934 564.116 C 573.961 560.143, 575.640 549.408, 576.500 541.313 C 576.979 536.812, 576.753 535.848, 574.789 534.018 C 573.044 532.393, 571.493 531.977, 568.013 532.205 L 563.500 532.500 562.455 540.500 C 561.880 544.900, 561.145 549.175, 560.823 550 C 560.500 550.825, 559.640 553.525, 558.912 556 C 555.351 568.110, 544.570 584, 539.916 584 C 538.941 584, 537.381 583.239, 536.451 582.308 C 534.473 580.330, 534.827 572.883, 537.536 559.500 C 538.427 555.100, 539.395 547.900, 539.688 543.500 C 540.162 536.369, 540.002 535.303, 538.212 533.688 C 536.771 532.386, 534.977 531.963, 531.852 532.188 L 527.500 532.500 526.755 538 C 525.896 544.342, 524.351 554.083, 522.950 562 C 522.414 565.025, 521.714 571.100, 521.393 575.500 C 520.862 582.804, 521.018 583.805, 523.193 587 C 526.776 592.266, 530.240 593.572, 536.909 592.173 C 542.990 590.898, 546.881 587.767, 552.283 579.799 C 554.052 577.190, 555.950 575.192, 556.500 575.358 C 557.050 575.524, 557.739 577.649, 558.030 580.080 C 558.687 585.562, 561.327 590.135, 564.774 591.761 C 571.007 594.703, 580.963 592.038, 586.357 585.984 C 589.343 582.632, 592 582.081, 592 584.813 C 592 587.397, 597.007 591.851, 600.753 592.601 C 606.518 593.754, 612.421 592.188, 616.962 588.301 C 621.307 584.582, 622.946 584.831, 622.985 589.215 C 623.007 591.745, 626.445 593.147, 631.784 592.803 L 636.500 592.500 636.735 587.500 C 637.013 581.588, 638.971 571.897, 640.161 570.550 C 640.622 570.028, 641 568.806, 641 567.836 C 641 566.866, 642.899 562.407, 645.220 557.928 C 652.107 544.634, 661.836 537.956, 664.810 544.482 C 665.971 547.030, 665.919 547.517, 662.549 566 C 659.146 584.657, 661.630 590.690, 673.536 592.684 C 679.104 593.616, 684.726 591.277, 689.954 585.854 L 694.816 580.810 696.531 584.425 C 699.215 590.081, 703.398 592.497, 710.500 592.495 C 717.368 592.492, 724.382 589.107, 728.190 583.957 C 730.630 580.656, 733.713 580.088, 734.733 582.750 C 736.617 587.671, 745.278 592.024, 754.583 592.728 C 765.043 593.519, 774.226 590.474, 781.537 583.792 C 786.397 579.350, 788.901 575.567, 787.745 574.412 C 787.504 574.171, 785.590 575.594, 783.490 577.574 C 775.143 585.447, 760.266 587.420, 751.939 581.759 C 746.011 577.729, 742.922 566.910, 747.500 566.212 C 754.506 565.143, 768.916 559.036, 773.626 555.139 C 780.885 549.134, 780.444 538.317, 772.794 534.721 C 763.136 530.182, 750.446 532.494, 741.906 540.349 C 732.793 548.731, 729.467 556.792, 730.228 568.648 C 730.756 576.879, 730.185 578.091, 724 581.860 C 714.689 587.534, 708.174 582.478, 709.536 570.635 C 710.646 560.989, 714.837 538.763, 715.710 537.895 C 716.145 537.463, 719.200 536.973, 722.500 536.805 C 727.851 536.533, 728.535 536.257, 728.820 534.250 C 729.121 532.128, 728.793 532, 723.048 532 L 716.957 532 717.106 524.330 C 717.229 517.960, 716.946 516.434, 715.436 515.330 C 713.508 513.920, 705.413 513.483, 704.690 514.750 M 422.562 539.266 C 417.508 542.132, 412.158 551.552, 412.064 557.750 C 411.993 562.451, 412.460 562.681, 418.104 560.714 C 427.058 557.594, 434 550.025, 434 543.382 C 434 537.008, 429.438 535.367, 422.562 539.266 M 756.366 538.919 C 750.416 542.546, 745 552.176, 745 559.126 C 745 562.337, 745.865 562.564, 751 560.698 C 761.294 556.958, 767 550.784, 767 543.385 C 767 536.990, 762.576 535.132, 756.366 538.919 M 482.243 539.875 C 477.638 541.150, 473.322 545.766, 470.738 552.179 C 463.686 569.676, 465.041 582.943, 473.969 583.822 C 477.766 584.196, 481.694 581.029, 485.527 574.500 C 488.590 569.282, 492.550 556.957, 493.410 549.967 C 494.020 545.001, 493.854 544.219, 491.795 542.348 C 489.137 539.933, 485.464 538.982, 482.243 539.875 M 400.216 647.505 C 396.088 649.299, 393.801 654.131, 395.192 658.122 C 396.447 661.722, 398.540 663.391, 400.737 662.545 C 402.414 661.899, 402.414 661.817, 400.750 660.883 C 399.507 660.185, 399.009 658.683, 399.032 655.700 C 399.067 651.098, 400.808 648, 403.360 648 C 404.262 648, 405 647.550, 405 647 C 405 645.695, 404.184 645.781, 400.216 647.505 M 432.500 647 C 432.160 647.550, 432.352 648, 432.928 648 C 433.503 648, 434.608 649.520, 435.385 651.378 C 436.161 653.236, 437.292 655.062, 437.898 655.437 C 438.504 655.812, 439 657.640, 439 659.500 C 439 661.360, 439.450 663.160, 440 663.500 C 440.550 663.840, 441.007 665.104, 441.015 666.309 C 441.033 668.981, 443.302 675.702, 444.636 677.036 C 446.452 678.852, 449.378 675.642, 448.628 672.656 C 448.262 671.195, 447.395 670, 446.702 670 C 445.972 670, 444.683 666.955, 443.634 662.750 C 441.339 653.554, 439.827 648.834, 438.669 647.250 C 437.577 645.757, 433.374 645.586, 432.500 647 M 551 647 C 549.667 647.862, 549.667 647.971, 551 647.987 C 552.725 648.007, 558.058 658.413, 558.023 661.691 C 558.010 662.896, 558.450 664.160, 559 664.500 C 559.550 664.840, 560 666.072, 560 667.238 C 560 669.905, 562.189 676.284, 563.404 677.157 C 564.838 678.189, 566.752 677.057, 567.333 674.834 C 568.013 672.236, 567.153 670, 565.474 670 C 564.239 670, 562.518 664.731, 561.306 657.241 C 561.016 655.448, 560.379 653.734, 559.890 653.432 C 559.400 653.129, 559 651.799, 559 650.476 C 559 646.860, 554.346 644.838, 551 647 M 596.354 647.336 C 599.530 648.586, 599.506 647.821, 596.893 664 C 595.312 673.793, 595.261 676.222, 596.627 676.695 C 598.548 677.359, 599.075 675.155, 601.692 655.500 C 602.450 649.807, 603.598 648.756, 608.206 649.535 C 612.092 650.191, 615.560 648.716, 614.430 646.887 C 614.129 646.399, 609.296 646.048, 603.691 646.106 C 595.056 646.197, 593.936 646.384, 596.354 647.336 M 668 647.175 C 662.930 648.617, 660.848 650.841, 661.201 654.441 C 661.640 658.915, 664.600 659.109, 664.600 654.663 C 664.600 650.936, 666.826 648.009, 669.679 647.985 C 670.680 647.976, 672.175 647.533, 673 647 C 674.333 646.138, 674.333 646.039, 673 646.106 C 672.175 646.147, 669.925 646.628, 668 647.175 M 720.526 646.958 C 720.162 647.547, 720.743 648, 721.863 648 C 724.433 648, 726.462 653.883, 725.612 658.867 C 725.272 660.865, 724.709 664.075, 724.362 666 C 724.016 667.925, 722.843 670.763, 721.757 672.308 C 718.756 676.573, 720.716 676.978, 724.481 672.870 C 731.437 665.279, 731.359 651.831, 724.335 647.753 C 722.283 646.561, 720.944 646.282, 720.526 646.958 M 522.831 651.026 C 523.046 653.285, 522.664 657.128, 521.981 659.566 C 520.898 663.434, 520.390 664, 517.992 664 C 516.274 664, 514.656 663.157, 513.674 661.750 C 512.357 659.861, 512.096 659.781, 512.052 661.250 C 512.021 662.316, 511.218 663, 510 663 C 507.891 663, 507.309 664.455, 509 665.500 C 510.907 666.679, 509.985 669.835, 507 672.347 C 504.196 674.706, 502.940 678, 504.845 678 C 506.307 678, 508.628 674.674, 510.599 669.754 C 512.384 665.297, 512.725 665.007, 516.183 665.004 C 520.178 665, 520.804 665.904, 520.844 671.737 C 520.856 673.517, 521.147 675.429, 521.492 675.987 C 522.302 677.298, 527 677.310, 527 676 C 527 675.450, 526.559 675, 526.019 675 C 524.055 675, 523.853 669.944, 525.488 661.705 C 527.533 651.397, 527.267 647.610, 524.470 647.209 C 522.660 646.950, 522.482 647.365, 522.831 651.026 M 641.354 650.250 C 641.274 652.038, 640.877 655.644, 640.472 658.264 C 639.874 662.136, 639.294 663.139, 637.371 663.622 C 634.085 664.447, 632.232 663.526, 631.714 660.811 L 631.272 658.500 631.136 660.750 C 631.045 662.264, 630.365 663, 629.059 663 C 626.365 663, 625.997 664.196, 628.081 666.173 C 629.602 667.615, 629.924 667.641, 630.415 666.362 C 630.811 665.329, 632.127 664.973, 634.742 665.189 C 638.428 665.494, 638.506 665.586, 638.820 669.998 C 639.214 675.550, 641.409 678.387, 644.166 676.911 C 646.049 675.903, 646.049 675.858, 644.136 674.193 C 642.087 672.409, 642.138 670.792, 644.728 655.500 C 645.775 649.323, 645.351 647, 643.177 647 C 641.982 647, 641.458 647.934, 641.354 650.250 M 408.826 652.031 C 408.513 655.309, 408.756 656, 410.224 656 C 412.417 656, 412.676 651.533, 410.602 649.459 C 409.405 648.262, 409.150 648.631, 408.826 652.031 M 425.200 649.200 C 423.268 651.132, 423.678 656, 425.773 656 C 427.174 656, 427.545 655.162, 427.545 652 C 427.545 647.761, 427.132 647.268, 425.200 649.200 M 474.649 651.250 C 471.740 655.105, 469 661.428, 469 664.286 C 469 665.409, 469.757 668.043, 470.682 670.139 C 472.640 674.577, 479.634 678.560, 483.684 677.543 C 486.796 676.762, 485.694 675, 482.094 675 C 480.561 675, 478.225 674.061, 476.903 672.914 C 474.747 671.042, 474.505 670.040, 474.545 663.164 C 474.582 656.967, 475.032 654.782, 476.894 651.750 C 479.720 647.149, 478.028 646.772, 474.649 651.250 M 487.812 651.514 C 488.037 653.446, 487.667 655.696, 486.989 656.514 C 485.965 657.747, 486.105 658, 487.810 658 C 490.286 658, 491.399 655.091, 490.495 650.978 C 489.549 646.669, 487.299 647.118, 487.812 651.514 M 543.713 650 C 541.925 652.552, 542.588 656, 544.867 656.001 C 546.087 656.001, 546.475 655.113, 546.399 652.483 C 546.271 647.984, 545.575 647.341, 543.713 650 M 585.980 650.038 C 584.590 652.634, 585.628 656, 587.817 656 C 589.114 656, 589.500 655.082, 589.500 652 C 589.500 647.613, 587.788 646.659, 585.980 650.038 M 681.977 649.977 C 684.340 652.340, 687.006 658.407, 686.985 661.372 C 686.960 664.875, 684.520 670.818, 682.007 673.492 C 680.338 675.269, 680.074 676, 681.103 676 C 685.075 676, 691 667.953, 691 662.560 C 691 658.051, 687.946 652.130, 684.531 650.019 C 680.392 647.461, 679.445 647.445, 681.977 649.977 M 712.291 650.250 C 708.462 654.438, 707 658.659, 707 665.527 C 707 671.518, 707.280 672.434, 709.923 675.077 C 711.531 676.685, 713.893 677.982, 715.173 677.960 C 717.445 677.921, 717.436 677.885, 714.795 676.451 C 709.511 673.583, 709.208 661.675, 714.167 651.750 C 716.267 647.546, 715.399 646.852, 712.291 650.250 M 671.566 656.250 C 671.203 658.038, 670.684 661.075, 670.414 663 C 669.069 672.598, 668.891 673.091, 666.446 674.020 C 663.506 675.138, 663.286 676.638, 665.937 677.480 C 668.916 678.425, 671.932 675.938, 672.570 672.010 C 672.883 670.079, 673.746 665.359, 674.487 661.520 C 675.228 657.681, 675.620 654.194, 675.358 653.770 C 674.218 651.925, 672.174 653.262, 671.566 656.250 M 393.561 665.348 C 390.251 668.658, 390.267 672.278, 393.601 674.901 C 396.828 677.439, 402.731 678.669, 404.275 677.125 C 404.894 676.506, 406.183 676, 407.141 676 C 408.099 676, 409.157 675.555, 409.493 675.012 C 409.878 674.388, 408.518 674.236, 405.802 674.599 C 400.908 675.253, 396.251 673.819, 395.311 671.368 C 394.960 670.453, 395.189 668.339, 395.819 666.668 C 397.341 662.635, 396.668 662.241, 393.561 665.348 M 624.656 672.618 C 621.790 675.084, 621.588 678.479, 624.371 677.411 C 625.790 676.867, 628.640 671.305, 627.885 670.553 C 627.673 670.342, 626.220 671.272, 624.656 672.618 M 430.667 671.667 C 429.620 672.714, 429.888 677, 431 677 C 431.550 677, 432 675.650, 432 674 C 432 670.893, 431.796 670.537, 430.667 671.667" stroke="none" fill="#6b5940" fill-rule="evenodd"/></svg>